<svg width="423" height="197" viewBox="0 0 423 197" fill="none" xmlns="http://www.w3.org/2000/svg">
<g clip-path="url(#clip0_4027_3774)">
<mask id="mask0_4027_3774" style="mask-type:luminance" maskUnits="userSpaceOnUse" x="1" y="12" width="104" height="111">
<path d="M105 12H1V122.638H105V12Z" fill="white"/>
</mask>
<g mask="url(#mask0_4027_3774)">
<path d="M1.3291 67.5207C1.3291 55.7165 3.58168 45.7109 8.08684 37.5038C12.592 29.2967 18.6862 23.0628 26.3694 18.8021C34.0526 14.5415 42.6613 12.4111 52.1955 12.4111C58.6913 12.4111 64.6981 13.3104 70.2161 15.109C75.734 16.9075 80.5884 19.5268 84.7793 22.9668C88.9701 26.4068 92.3752 30.6238 94.9944 35.6179C97.6137 40.612 99.2377 46.322 99.8663 52.748H73.6735C73.3243 50.0589 72.6084 47.6317 71.5257 45.4664C70.4431 43.3011 69.0112 41.4502 67.2301 39.9135C65.449 38.3769 63.3448 37.1982 60.9176 36.3775C58.4904 35.5568 55.8101 35.1464 52.8765 35.1464C47.6728 35.1464 43.1939 36.4212 39.4396 38.9706C35.6853 41.52 32.8041 45.2045 30.796 50.0239C28.7878 54.8434 27.7838 60.6757 27.7838 67.5207" fill="#344054"/>
<path d="M27.7838 67.5205C27.7838 74.645 28.8053 80.6082 30.8483 85.4102C32.8914 90.2122 35.7726 93.8268 39.492 96.254C43.2113 98.6812 47.6205 99.8948 52.7193 99.8948C55.5831 99.8948 58.1936 99.5281 60.5509 98.7947C62.9083 98.0613 64.9863 96.9874 66.7848 95.573C68.5834 94.1586 70.0677 92.4299 71.2376 90.3868C72.4075 88.3438 73.5674 86.1307 74.0214 83.5463L96.8866 96.0853C92.517 102.996 89.005 107.715 86.3508 110.241C82.3695 114.03 77.5239 117.042 71.8139 119.277C66.1038 121.512 59.5644 122.63 52.1955 122.63C42.4867 122.63 33.7994 120.491 26.1336 116.213C18.4679 111.935 12.4174 105.692 7.98207 97.4851C3.54675 89.278 1.3291 79.2898 1.3291 67.5205" fill="#039855"/>
<path d="M72.8411 97.701L73.9096 83.6428L95.6211 71.2158L89.3384 82.4525C88.3093 82.2243 87.245 82.7729 86.8543 83.7328C86.4634 84.6928 86.8683 85.7649 87.7994 86.234C88.7297 86.7035 89.8955 86.4245 90.5202 85.5821C91.1442 84.7399 91.0327 83.5979 90.2587 82.9174L96.5205 71.7189L97.1249 95.9387L84.9175 103.797L72.8411 97.701Z" fill="#039855"/>
</g>
<path d="M188.911 121.604L168.195 84.0041H162.378V121.604H138.116V22H178.837C186.688 22 193.357 23.3716 198.843 26.1147C204.424 28.8578 208.586 32.6414 211.329 37.4655C214.072 42.1951 215.443 47.4921 215.443 53.3567C215.443 59.9781 213.552 65.89 209.768 71.0925C206.079 76.2949 200.593 79.984 193.309 82.1595L216.295 121.604H188.911ZM162.378 66.8359H177.418C181.864 66.8359 185.174 65.7481 187.35 63.5725C189.62 61.3969 190.755 58.3227 190.755 54.3499C190.755 50.5663 189.62 47.5867 187.35 45.4111C185.174 43.2356 181.864 42.1478 177.418 42.1478H162.378V66.8359Z" fill="#344054"/>
<path d="M134.5 22L111 26L135 93L134.5 22Z" fill="#1570EF"/>
<path fill-rule="evenodd" clip-rule="evenodd" d="M397.639 28.6395C389.788 24.4775 380.612 22.3965 370.113 22.3965H332.797V43.0121C333.03 43.0043 333.265 43.0003 333.5 43.0003H371.5C374.275 43.0003 376.921 43.5516 379.334 44.5506C383.535 45.8049 387.082 47.8793 389.977 50.7737C395.085 55.8816 397.639 63.0232 397.639 72.1984C397.639 81.3737 395.085 88.468 389.977 93.4813C386.782 96.6165 382.793 98.7714 378.007 99.9459C375.963 100.63 373.775 101 371.5 101H368.854C368.753 101.001 368.653 101.001 368.552 101.001H357.059L333.5 101C333.265 101 333.03 100.996 332.797 100.988V122H370.113C380.518 122 389.646 119.919 397.497 115.757C405.442 111.595 411.543 105.73 415.8 98.1635C420.151 90.5963 422.327 81.9412 422.327 72.1984C422.327 62.361 420.151 53.706 415.8 46.2333C411.543 38.6661 405.49 32.8015 397.639 28.6395Z" fill="#344054"/>
<path fill-rule="evenodd" clip-rule="evenodd" d="M336.2 91.1372C336.2 91.7243 336.677 92.2005 337.267 92.2005H360.734C361.323 92.2005 361.801 91.731 361.801 91.1372V63.3963C361.801 62.8092 361.324 62.3331 360.734 62.3331H337.267C336.678 62.3331 336.2 62.8025 336.2 63.3963V91.1372ZM363.933 57.0096C363.933 56.4151 363.467 55.933 362.864 55.933H356.732C356.586 55.933 356.375 55.8415 356.285 55.7514L355.092 54.558C354.673 54.1391 353.848 53.7998 353.272 53.7998H344.729C344.142 53.7998 343.334 54.1331 342.909 54.558L341.715 55.7514C341.615 55.8519 341.404 55.933 341.268 55.933H335.136C334.546 55.933 334.067 56.4062 334.067 57.0096V59.1235C334.067 59.718 334.536 60.2002 335.13 60.2002H362.871C363.458 60.2002 363.933 59.7269 363.933 59.1235V57.0096Z" fill="#D92D20"/>
<path fill-rule="evenodd" clip-rule="evenodd" d="M255.262 80.9885V21.3965H231V80.8467C231 89.7382 232.797 97.3054 236.392 103.548C239.986 109.696 244.858 114.331 251.006 117.453C257.249 120.48 264.296 121.993 272.147 121.993C278.618 121.993 284.574 120.933 290.017 118.813H289.629V114.688H298.003C299.825 113.463 301.515 112.088 303.072 110.563H289.629V106.438H306.689C307.416 105.472 308.104 104.461 308.753 103.406C308.975 103.046 309.19 102.682 309.398 102.313H289.629V98.1878H311.38C311.913 96.8636 312.377 95.4886 312.771 94.0628H289.629V89.9378H313.69C313.92 88.602 314.097 87.227 314.22 85.8128H289.787C289.165 89.4856 287.778 92.4651 285.626 94.7515C282.599 97.9675 278.248 99.5756 272.573 99.5756C266.897 99.5756 262.593 97.9675 259.661 94.7515C256.729 91.5354 255.262 86.9477 255.262 80.9885ZM290.159 81.6878H314.423C314.427 81.4088 314.429 81.1284 314.429 80.8467V77.5628H290.166V80.9885C290.166 81.2238 290.164 81.4569 290.159 81.6878ZM290.166 73.4378H314.429V69.3128H290.166V73.4378ZM290.166 65.1878H314.429V61.0628H290.166V65.1878ZM290.166 56.9378H314.429V52.8128H290.166V56.9378ZM290.166 48.6878H314.429V44.5628H290.166V48.6878ZM290.166 40.4378H314.429V36.3128H290.166V40.4378ZM290.166 32.1878H314.429V28.0628H290.166V32.1878ZM290.166 26.0003H314.429V21.3965H290.166V26.0003Z" fill="#344054"/>
<path fill-rule="evenodd" clip-rule="evenodd" d="M314.429 26V80.8464C314.429 89.7379 312.537 97.2578 308.754 103.406C304.97 109.555 299.862 114.189 293.43 117.311C292.033 117.999 290.599 118.611 289.129 119.148V88.5945C289.821 86.3725 290.167 83.8371 290.167 80.9882V26H314.429Z" fill="#DC6803"/>
<path d="M301.176 1.19919C301.573 0.621102 302.427 0.621103 302.824 1.19919L322.574 29.9338C323.03 30.5973 322.555 31.5002 321.75 31.5002H282.25C281.445 31.5002 280.97 30.5973 281.426 29.9338L301.176 1.19919Z" fill="#DC6803"/>
<path d="M0 146C0 143.791 1.79086 142 4 142H419C421.209 142 423 143.791 423 146V193C423 195.209 421.209 197 419 197H4.00001C1.79087 197 0 195.209 0 193V146Z" fill="#344054"/>
<path d="M61.5256 179H57.571L63.5966 161.545H68.3523L74.3693 179H70.4148L66.0426 165.534H65.9062L61.5256 179ZM61.2784 172.139H70.6193V175.02H61.2784V172.139ZM121.77 167.656H118.037C117.969 167.173 117.83 166.744 117.62 166.369C117.41 165.989 117.14 165.665 116.81 165.398C116.481 165.131 116.1 164.926 115.668 164.784C115.242 164.642 114.779 164.571 114.279 164.571C113.376 164.571 112.589 164.795 111.918 165.244C111.248 165.687 110.728 166.335 110.358 167.188C109.989 168.034 109.805 169.062 109.805 170.273C109.805 171.517 109.989 172.562 110.358 173.409C110.733 174.256 111.256 174.895 111.927 175.327C112.597 175.759 113.373 175.974 114.253 175.974C114.748 175.974 115.205 175.909 115.626 175.778C116.052 175.648 116.43 175.457 116.759 175.207C117.089 174.952 117.361 174.642 117.577 174.278C117.799 173.915 117.952 173.5 118.037 173.034L121.77 173.051C121.674 173.852 121.432 174.625 121.046 175.369C120.665 176.108 120.151 176.77 119.503 177.355C118.861 177.935 118.094 178.395 117.202 178.736C116.316 179.071 115.313 179.239 114.194 179.239C112.637 179.239 111.245 178.886 110.018 178.182C108.796 177.477 107.83 176.457 107.12 175.122C106.415 173.787 106.063 172.17 106.063 170.273C106.063 168.369 106.421 166.75 107.137 165.415C107.853 164.08 108.824 163.062 110.052 162.364C111.279 161.659 112.66 161.307 114.194 161.307C115.205 161.307 116.143 161.449 117.006 161.733C117.876 162.017 118.645 162.432 119.316 162.977C119.986 163.517 120.532 164.179 120.952 164.963C121.378 165.747 121.651 166.645 121.77 167.656ZM157.817 179H153.863L159.888 161.545H164.644L170.661 179H166.706L162.334 165.534H162.198L157.817 179ZM157.57 172.139H166.911V175.02H157.57V172.139ZM209.669 179H203.482V161.545H209.72C211.476 161.545 212.987 161.895 214.254 162.594C215.522 163.287 216.496 164.284 217.178 165.585C217.865 166.886 218.209 168.443 218.209 170.256C218.209 172.074 217.865 173.636 217.178 174.943C216.496 176.25 215.516 177.253 214.237 177.952C212.965 178.651 211.442 179 209.669 179ZM207.172 175.838H209.516C210.607 175.838 211.524 175.645 212.269 175.259C213.019 174.866 213.581 174.261 213.956 173.443C214.337 172.619 214.527 171.557 214.527 170.256C214.527 168.966 214.337 167.912 213.956 167.094C213.581 166.276 213.022 165.673 212.277 165.287C211.533 164.901 210.615 164.707 209.524 164.707H207.172V175.838ZM251.663 179V161.545H263.424V164.588H255.353V168.747H262.819V171.79H255.353V175.957H263.458V179H251.663ZM297.078 161.545H301.629L306.436 173.273H306.64L311.447 161.545H315.998V179H312.419V167.639H312.274L307.757 178.915H305.319L300.802 167.597H300.658V179H297.078V161.545ZM348.736 161.545H352.87L356.85 169.062H357.02L361 161.545H365.134L358.767 172.83V179H355.103V172.83L348.736 161.545Z" fill="white"/>
</g>
<defs>
<clipPath id="clip0_4027_3774">
<rect width="423" height="197" fill="white"/>
</clipPath>
</defs>
</svg>
